# xmcd CD database file
#
# Track frame offsets:
#	150
#	21858
#	34726
#	51996
#	67286
#	86561
#	102671
#	117693
#	137251
#	149171
#
# Disc length: 2196 seconds
#
# Revision: 3
# Processed by: cddbd v1.5.2PL0 Copyright (c) Steve Scherf et al.
# Submitted via: CDex 1.51
#
DISCID=9d08920a
DTITLE=Kenny Rogers - Love Songs
DYEAR=1998
DGENRE=Country
TTITLE0=Have I Told You Lately That I Love You
TTITLE1=As Time Goes By
TTITLE2=Endless Love
TTITLE3=Unforgettable
TTITLE4=I Only Have Eyes For You
TTITLE5=Evergreen
TTITLE6=Misty
TTITLE7=She Believes In Me
TTITLE8=Always
TTITLE9=When I Fall In Love
EXTD=YEAR: 1998
EXTT0=
EXTT1=
EXTT2=
EXTT3=
EXTT4=
EXTT5=
EXTT6=
EXTT7=
EXTT8=
EXTT9=
PLAYORDER=
